<svg width="28" height="43" viewBox="0 0 28 43" fill="none" xmlns="http://www.w3.org/2000/svg">
<g id="Union">
<path fill-rule="evenodd" clip-rule="evenodd" d="M1.625 41.7676L26.625 21.7676L26.1352 21.1553L26.2652 20.9994L2.26518 0.999355L1.625 1.76758L25.3307 21.5224L1.00031 40.9867L1.625 41.7676Z" fill="white"/>
<path d="M26.625 21.7676L26.9373 22.158L27.3278 21.8457L27.0154 21.4552L26.625 21.7676ZM1.625 41.7676L1.23457 42.0799L1.54691 42.4704L1.93735 42.158L1.625 41.7676ZM26.1352 21.1553L25.7511 20.8352L25.4897 21.1489L25.7448 21.4677L26.1352 21.1553ZM26.2652 20.9994L26.6493 21.3194L26.9694 20.9353L26.5853 20.6152L26.2652 20.9994ZM2.26518 0.999355L2.58528 0.615246L2.20117 0.295151L1.88107 0.679264L2.26518 0.999355ZM1.625 1.76758L1.24089 1.44749L0.920797 1.8316L1.30491 2.15169L1.625 1.76758ZM25.3307 21.5224L25.6431 21.9128L26.1213 21.5303L25.6508 21.1383L25.3307 21.5224ZM1.00031 40.9867L0.687958 40.5963L0.297523 40.9086L0.609871 41.2991L1.00031 40.9867ZM26.3127 21.3771L1.31265 41.3771L1.93735 42.158L26.9373 22.158L26.3127 21.3771ZM25.7448 21.4677L26.2346 22.0799L27.0154 21.4552L26.5256 20.843L25.7448 21.4677ZM25.8811 20.6793L25.7511 20.8352L26.5193 21.4754L26.6493 21.3194L25.8811 20.6793ZM1.94509 1.38346L25.9451 21.3835L26.5853 20.6152L2.58528 0.615246L1.94509 1.38346ZM2.00911 2.08767L2.6493 1.31945L1.88107 0.679264L1.24089 1.44749L2.00911 2.08767ZM25.6508 21.1383L1.94509 1.38347L1.30491 2.15169L25.0106 21.9065L25.6508 21.1383ZM1.31265 41.3771L25.6431 21.9128L25.0184 21.1319L0.687958 40.5963L1.31265 41.3771ZM2.01543 41.4552L1.39074 40.6744L0.609871 41.2991L1.23457 42.0799L2.01543 41.4552Z" fill="black"/>
</g>
</svg>
