<svg width="28" height="43" viewBox="0 0 28 43" fill="none" xmlns="http://www.w3.org/2000/svg">
<path fill-rule="evenodd" clip-rule="evenodd" d="M25.8547 1.35651L0.893768 21.2639L1.3828 21.8733L1.25086 22.0312L25.2134 41.9386L25.8547 41.1713L2.1887 21.5102L26.4806 2.13644L25.8547 1.35651Z" fill="white"/>
<path d="M0.893768 21.2639L0.582007 20.873L0.189929 21.1857L0.503803 21.5768L0.893768 21.2639ZM25.8547 1.35651L26.2447 1.04357L25.9327 0.654777L25.5429 0.965604L25.8547 1.35651ZM1.3828 21.8733L1.76643 22.194L2.02907 21.8798L1.77277 21.5604L1.3828 21.8733ZM1.25086 22.0312L0.867233 21.7105L0.54559 22.0953L0.931349 22.4158L1.25086 22.0312ZM25.2134 41.9386L24.8939 42.3232L25.2773 42.6417L25.597 42.2593L25.2134 41.9386ZM25.8547 41.1713L26.2383 41.492L26.56 41.1072L26.1742 40.7867L25.8547 41.1713ZM2.1887 21.5102L1.87694 21.1193L1.39673 21.5023L1.86919 21.8948L2.1887 21.5102ZM26.4806 2.13644L26.7923 2.52734L27.1844 2.21464L26.8705 1.8235L26.4806 2.13644ZM1.20553 21.6548L26.1665 1.74741L25.5429 0.965604L0.582007 20.873L1.20553 21.6548ZM1.77277 21.5604L1.28373 20.951L0.503803 21.5768L0.992837 22.1863L1.77277 21.5604ZM1.63449 22.3518L1.76643 22.194L0.999175 21.5527L0.867233 21.7105L1.63449 22.3518ZM25.5329 41.554L1.57037 21.6466L0.931349 22.4158L24.8939 42.3232L25.5329 41.554ZM25.4711 40.8507L24.8297 41.6179L25.597 42.2593L26.2383 41.492L25.4711 40.8507ZM1.86919 21.8948L25.5352 41.5559L26.1742 40.7867L2.50821 21.1256L1.86919 21.8948ZM26.1688 1.74553L1.87694 21.1193L2.50046 21.9011L26.7923 2.52734L26.1688 1.74553ZM25.4647 1.66944L26.0906 2.44937L26.8705 1.8235L26.2447 1.04357L25.4647 1.66944Z" fill="white"/>
</svg>
