<svg width="28" height="43" viewBox="0 0 28 43" fill="none" xmlns="http://www.w3.org/2000/svg">
<g id="Union">
<path fill-rule="evenodd" clip-rule="evenodd" d="M26 1L1 21L1.4898 21.6122L1.35982 21.7682L25.3598 41.7682L26 41L2.29426 21.2452L26.6247 1.78087L26 1Z" fill="white"/>
<path d="M1 21L0.687652 20.6096L0.297218 20.9219L0.609566 21.3123L1 21ZM26 1L26.3904 0.687653L26.0781 0.297218L25.6877 0.609566L26 1ZM1.4898 21.6122L1.87391 21.9323L2.13527 21.6187L1.88023 21.2999L1.4898 21.6122ZM1.35982 21.7682L0.975704 21.4481L0.655613 21.8322L1.03972 22.1523L1.35982 21.7682ZM25.3598 41.7682L25.0397 42.1523L25.4238 42.4724L25.7439 42.0883L25.3598 41.7682ZM26 41L26.3841 41.3201L26.7042 40.936L26.3201 40.6159L26 41ZM2.29426 21.2452L1.98191 20.8548L1.50375 21.2373L1.97417 21.6293L2.29426 21.2452ZM26.6247 1.78087L26.937 2.1713L27.3275 1.85896L27.0151 1.46852L26.6247 1.78087ZM1.31235 21.3904L26.3123 1.39043L25.6877 0.609566L0.687652 20.6096L1.31235 21.3904ZM1.88023 21.2999L1.39043 20.6877L0.609566 21.3123L1.09936 21.9246L1.88023 21.2999ZM1.74393 22.0883L1.87391 21.9323L1.10569 21.2922L0.975704 21.4481L1.74393 22.0883ZM25.6799 41.3841L1.67991 21.3841L1.03972 22.1523L25.0397 42.1523L25.6799 41.3841ZM25.6159 40.6799L24.9757 41.4481L25.7439 42.0883L26.3841 41.3201L25.6159 40.6799ZM1.97417 21.6293L25.6799 41.3841L26.3201 40.6159L2.61435 20.8611L1.97417 21.6293ZM26.3123 1.39043L1.98191 20.8548L2.60661 21.6357L26.937 2.1713L26.3123 1.39043ZM25.6096 1.31235L26.2343 2.09322L27.0151 1.46852L26.3904 0.687653L25.6096 1.31235Z" fill="black"/>
</g>
</svg>
