<svg width="28" height="43" viewBox="0 0 28 43" fill="none" xmlns="http://www.w3.org/2000/svg">
<path fill-rule="evenodd" clip-rule="evenodd" d="M1.79895 41.9353L26.7599 22.0279L26.2709 21.4185L26.4028 21.2606L2.4403 1.35323L1.79895 2.12048L25.465 21.7816L1.17308 41.1554L1.79895 41.9353Z" fill="white"/>
<path d="M26.7599 22.0279L27.0716 22.4188L27.4637 22.1061L27.1499 21.715L26.7599 22.0279ZM1.79895 41.9353L1.40899 42.2482L1.72098 42.637L2.11071 42.3262L1.79895 41.9353ZM26.2709 21.4185L25.8872 21.0978L25.6246 21.412L25.8809 21.7314L26.2709 21.4185ZM26.4028 21.2606L26.7864 21.5813L27.1081 21.1965L26.7223 20.876L26.4028 21.2606ZM2.4403 1.35323L2.75981 0.968639L2.37638 0.650093L2.05667 1.03256L2.4403 1.35323ZM1.79895 2.12048L1.41533 1.79981L1.09368 2.1846L1.47944 2.50508L1.79895 2.12048ZM25.465 21.7816L25.7767 22.1725L26.2569 21.7895L25.7845 21.397L25.465 21.7816ZM1.17308 41.1554L0.861322 40.7645L0.469246 41.0772L0.783119 41.4683L1.17308 41.1554ZM26.4481 21.637L1.48719 41.5444L2.11071 42.3262L27.0716 22.4188L26.4481 21.637ZM25.8809 21.7314L26.3699 22.3408L27.1499 21.715L26.6608 21.1056L25.8809 21.7314ZM26.0192 20.94L25.8872 21.0978L26.6545 21.7392L26.7864 21.5813L26.0192 20.94ZM2.12078 1.73783L26.0833 21.6452L26.7223 20.876L2.75981 0.968639L2.12078 1.73783ZM2.18258 2.44116L2.82392 1.67391L2.05667 1.03256L1.41533 1.79981L2.18258 2.44116ZM25.7845 21.397L2.11846 1.73589L1.47944 2.50508L25.1454 22.1662L25.7845 21.397ZM1.48485 41.5463L25.7767 22.1725L25.1532 21.3907L0.861322 40.7645L1.48485 41.5463ZM2.18892 41.6224L1.56305 40.8424L0.783119 41.4683L1.40899 42.2482L2.18892 41.6224Z" fill="white"/>
</svg>
